HIERARCHY
ROOT RootJoint
{
    OFFSET   0.000000   0.000000   0.000000
    CHANNELS 6 Xposition Yposition Zposition Xrotation Yrotation Zrotation
    JOINT pelvis_lowerback
    {
        OFFSET   0.000000   0.093605   0.000000
        CHANNELS 3 Xrotation Yrotation Zrotation
        JOINT lowerback_torso
        {
            OFFSET   0.000000   0.100000   0.000000
            CHANNELS 3 Xrotation Yrotation Zrotation
            JOINT torso_head
            {
                OFFSET   0.000000   0.282350   0.000000
                CHANNELS 3 Xrotation Yrotation Zrotation
                End Site
                {
                    OFFSET   0.000000   0.192650   0.000000
                }
            }
            JOINT rTorso_Clavicle
            {
                OFFSET  -0.001000   0.157500   0.000000
                CHANNELS 3 Xrotation Yrotation Zrotation
                JOINT rShoulder
                {
                    OFFSET  -0.117647   0.000000   0.000000
                    CHANNELS 3 Xrotation Yrotation Zrotation
                    JOINT rElbow
                    {
                        OFFSET  -0.245000   0.000000   0.000000
                        CHANNELS 3 Xrotation Yrotation Zrotation
                        JOINT rWrist
                        {
                            OFFSET  -0.240000   0.000000   0.000000
                            CHANNELS 3 Xrotation Yrotation Zrotation
                            End Site
                            {
                                OFFSET  -0.116353  -0.002500   0.000000
                            }
                        }
                    }
                }
            }
            JOINT lTorso_Clavicle
            {
                OFFSET   0.001000   0.157500   0.000000
                CHANNELS 3 Xrotation Yrotation Zrotation
                JOINT lShoulder
                {
                    OFFSET   0.117647   0.000000   0.000000
                    CHANNELS 3 Xrotation Yrotation Zrotation
                    JOINT lElbow
                    {
                        OFFSET   0.245000   0.000000   0.000000
                        CHANNELS 3 Xrotation Yrotation Zrotation
                        JOINT lWrist
                        {
                            OFFSET   0.240000   0.000000   0.000000
                            CHANNELS 3 Xrotation Yrotation Zrotation
                            End Site
                            {
                                OFFSET   0.116353  -0.002500   0.000000
                            }
                        }
                    }
                }
            }
        }
    }
    JOINT rHip
    {
        OFFSET  -0.100000  -0.051395   0.000000
        CHANNELS 3 Xrotation Yrotation Zrotation
        JOINT rKnee
        {
            OFFSET   0.000000  -0.410000   0.000000
            CHANNELS 3 Xrotation Yrotation Zrotation
            JOINT rAnkle
            {
                OFFSET   0.000000  -0.390000   0.000000
                CHANNELS 3 Xrotation Yrotation Zrotation
                JOINT rToeJoint
                {
                    OFFSET   0.000000  -0.050000   0.130000
                    CHANNELS 3 Xrotation Yrotation Zrotation
                    End Site
                    {
                        OFFSET  -0.010000   0.002000   0.060000
                    }
                }
            }
        }
    }
    JOINT lHip
    {
        OFFSET   0.100000  -0.051395   0.000000
        CHANNELS 3 Xrotation Yrotation Zrotation
        JOINT lKnee
        {
            OFFSET   0.000000  -0.410000   0.000000
            CHANNELS 3 Xrotation Yrotation Zrotation
            JOINT lAnkle
            {
                OFFSET   0.000000  -0.390000   0.000000
                CHANNELS 3 Xrotation Yrotation Zrotation
                JOINT lToeJoint
                {
                    OFFSET   0.000000  -0.050000   0.130000
                    CHANNELS 3 Xrotation Yrotation Zrotation
                    End Site
                    {
                        OFFSET   0.010000   0.002000   0.060000
                    }
                }
            }
        }
    }
}
MOTION
Frames: 14
Frame Time:   0.008333
 -2.955443   0.896217   4.841320  -9.859998  16.959422   0.569804   5.994000   0.746593  -1.584650   8.592576  -1.682116  -6.295844   0.417571  -7.827969   4.094569  -1.332076  21.033711 -13.416561  -3.020529  28.728216  -8.207798   0.002912  35.759139   0.000716  10.272212   5.802293   7.077751   1.335220 -10.868791 -12.013131  13.665917  -9.429260 -38.875251  -0.000113 -14.041621  -0.000253   5.962848  -3.451910  -1.660295  -1.395273  -9.114087  -4.481603  24.931250   0.000025   0.000177 -13.104662 -12.798844   0.044131   0.324694   0.000003  -0.000000  -1.578068   2.537773  12.305766  25.405612  -0.000006   0.000045 -14.612874   5.652943  -0.063989   1.267645  -0.000004   0.000006
 -2.955254   0.896375   4.841377  -9.861566  16.865681   0.554353   5.963111   0.722694  -1.597706   8.690145  -1.733121  -6.256373   0.436840  -7.794837   4.085556  -1.382987  21.008184 -13.406140  -3.548344  28.743371  -7.921586   0.001761  36.100922   0.002051  10.211325   5.838815   7.180115   1.376424 -10.908522 -11.964913  13.693099  -9.427381 -38.950293  -0.000107 -14.014372  -0.000266   5.956942  -3.464624  -1.714832  -1.346158  -9.076975  -4.474386  24.821033   0.000025   0.000195 -13.045576 -12.743859   0.022938   0.331086   0.000004  -0.000000  -1.503646   2.601778  12.297431  25.316099  -0.000007   0.000075 -14.595817   5.701087  -0.021419   1.280711  -0.000007   0.000005
 -2.955058   0.896547   4.841425  -9.853997  16.770840   0.536936   5.932202   0.695445  -1.608509   8.777505  -1.781925  -6.218108   0.460701  -7.764550   4.079209  -1.450709  20.986171 -13.408969  -4.051919  28.756170  -7.670749   0.000749  36.421190   0.002986  10.145447   5.874587   7.205081   1.420041 -10.943167 -11.914805  13.722546  -9.422016 -39.020818  -0.000101 -13.986763  -0.000276   5.953172  -3.469786  -1.780295  -1.303616  -9.038479  -4.467921  24.703540   0.000025   0.000213 -12.981400 -12.689143   0.002115   0.337502   0.000005  -0.000000  -1.434737   2.665569  12.286810  25.218911  -0.000008   0.000105 -14.573599   5.751443   0.020994   1.292160  -0.000008   0.000004
 -2.954859   0.896685   4.841505  -9.845572  16.683640   0.531880   5.901868   0.667458  -1.627456   8.854297  -1.828974  -6.185589   0.485874  -7.736564   4.073998  -1.524784  20.963700 -13.423049  -4.525994  28.763510  -7.447747  -0.000092  36.718868   0.003580  10.083296   5.900178   7.197350   1.463390 -10.973351 -11.860788  13.752472  -9.414119 -39.083810  -0.000092 -13.959657  -0.000279   5.950240  -3.467237  -1.846559  -1.270028  -8.999489  -4.474464  24.590698   0.000023   0.000218 -12.832491 -12.636999  -0.021754  -0.129847  -0.000196  -0.000018  -1.369937   2.725825  12.264713  25.129715  -0.000009   0.000121 -14.555511   5.797029   0.058736   1.301553  -0.000008   0.000003
 -2.954658   0.896846   4.841593  -9.831952  16.600126   0.514308   5.869222   0.641842  -1.634118   8.921174  -1.872607  -6.153154   0.509930  -7.710356   4.070017  -1.600895  20.941517 -13.441231  -4.971200  28.766943  -7.246415  -0.000743  36.995772   0.003922  10.025269   5.916342   7.169189   1.504492 -11.000942 -11.811667  13.780978  -9.405820 -39.142172  -0.000083 -13.933503  -0.000276   5.947611  -3.458281  -1.906973  -1.232960  -8.965684  -4.468992  24.483971   0.000021   0.000220 -12.795592 -12.590370  -0.040356  -0.028908  -0.000138  -0.000016  -1.309548   2.783035  12.254202  25.037702  -0.000010   0.000134 -14.535768   5.841819   0.096212   1.310158  -0.000008   0.000003
 -2.954451   0.897007   4.841685  -9.814382  16.520094   0.495259   5.835197   0.618022  -1.640264   8.978391  -1.913220  -6.122273   0.532720  -7.685865   4.066869  -1.676531  20.919788 -13.463012  -5.388376  28.767199  -7.063178  -0.001226  37.253288   0.004067   9.970644   5.924874   7.131048   1.543347 -11.026127 -11.763601  13.808057  -9.397437 -39.195879  -0.000074 -13.908861  -0.000266   5.945147  -3.447524  -1.964261  -1.198065  -8.933544  -4.463058  24.374512   0.000018   0.000221 -12.753904 -12.545307  -0.057879   0.052914  -0.000094  -0.000014  -1.254260   2.837643  12.244012  24.947076  -0.000011   0.000143 -14.515990   5.885454   0.132094   1.317673  -0.000008   0.000002
 -2.954237   0.897161   4.841781  -9.795499  16.444554   0.476791   5.800706   0.595541  -1.646761   9.027866  -1.951437  -6.093790   0.554166  -7.663001   4.064131  -1.750419  20.898691 -13.486712  -5.778866  28.765082  -6.895572  -0.001567  37.492936   0.004070   9.919126   5.927651   7.087343   1.579659 -11.049493 -11.716697  13.833541  -9.389198 -39.244777  -0.000064 -13.885713  -0.000253   5.942826  -3.435963  -2.017546  -1.165213  -8.902953  -4.458297  24.267885   0.000015   0.000218 -12.711461 -12.502813  -0.074556   0.119503  -0.000062  -0.000011  -1.202933   2.889377  12.233163  24.860666  -0.000012   0.000148 -14.497657   5.926879   0.165684   1.324095  -0.000007   0.000002
 -2.953986   0.897405   4.841921  -9.792268  16.353914   0.458515   5.777568   0.580202  -1.653825   9.080872  -1.980777  -6.060358   0.601316  -7.635470   4.075891  -1.843580  20.884044 -13.502263  -6.367504  28.765451  -6.618278  -0.002002  37.695136   0.004375   9.863153   5.972074   7.088654   1.620051 -11.067975 -11.667889  13.864895  -9.390994 -39.307603  -0.000068 -13.839577  -0.000286   5.945297  -3.446888  -2.067597  -1.080221  -8.862481  -4.446448  24.091719   0.000010   0.000248 -12.630507 -12.457224  -0.075160   0.170904  -0.000045  -0.000009  -1.098792   2.952706  12.221384  24.713383  -0.000013   0.000189 -14.453058   5.979869   0.190360   1.327759  -0.000006   0.000001
 -2.953710   0.897665   4.842054  -9.777316  16.263969   0.437558   5.750451   0.564427  -1.658380   9.123294  -2.008335  -6.027088   0.648838  -7.609439   4.088079  -1.946502  20.864976 -13.523115  -6.925316  28.756305  -6.369194  -0.002310  37.880095   0.004484   9.806958   5.995050   7.041949   1.662853 -11.080653 -11.621790  13.897484  -9.389689 -39.370016  -0.000070 -13.794842  -0.000306   5.948363  -3.451360  -2.128573  -1.002011  -8.822358  -4.436029  23.903839   0.000003   0.000277 -12.540764 -12.411808  -0.076400   0.213074  -0.000032  -0.000008  -1.002843   3.015796  12.206537  24.558290  -0.000017   0.000228 -14.403626   6.033469   0.215602   1.330732  -0.000005   0.000001
 -2.953416   0.897920   4.842184  -9.756548  16.177578   0.416571   5.722129   0.547804  -1.661468   9.157154  -2.035673  -5.995527   0.694401  -7.585078   4.100101  -2.051906  20.842281 -13.549300  -7.449297  28.740597  -6.144694  -0.002499  38.050251   0.004441   9.755169   6.000266   6.974809   1.705833 -11.089585 -11.577205  13.930097  -9.386098 -39.429015  -0.000069 -13.751915  -0.000316   5.951539  -3.449567  -2.192939  -0.930602  -8.783306  -4.428416  23.717747  -0.000006   0.000296 -12.450503 -12.368413  -0.078343   0.247942  -0.000021  -0.000006  -0.915119   3.076801  12.189118  24.406586  -0.000022   0.000255 -14.354956   6.085245   0.239625   1.332860  -0.000004   0.000001
 -2.953107   0.898163   4.842314  -9.733486  16.095367   0.396484   5.693052   0.530645  -1.663914   9.184556  -2.062799  -5.965838   0.737654  -7.562309   4.111677  -2.156415  20.817467 -13.578164  -7.940339  28.720561  -5.940577  -0.002590  38.207327   0.004296   9.707251   5.993184   6.898437   1.747733 -11.096141 -11.533893  13.961947  -9.381094 -39.483767  -0.000065 -13.711011  -0.000316   5.954775  -3.442988  -2.256506  -0.864196  -8.745585  -4.423513  23.538002  -0.000015   0.000306 -12.362942 -12.327391  -0.080857   0.276985  -0.000012  -0.000005  -0.833899   3.135282  12.169910  24.262214  -0.000028   0.000270 -14.309378   6.134529   0.261899   1.334197  -0.000003   0.000001
 -2.952786   0.898392   4.842447  -9.709887  16.017397   0.377579   5.663290   0.513287  -1.666180   9.206754  -2.089494  -5.937957   0.778424  -7.541040   4.122655  -2.257972  20.791658 -13.607829  -8.399837  28.697797  -5.753649  -0.002603  38.352730   0.004083   9.662527   5.978054   6.818211   1.787819 -11.101201 -11.491940  13.992524  -9.375350 -39.534196  -0.000059 -13.672291  -0.000310   5.958017  -3.433295  -2.317398  -0.801630  -8.709305  -4.420983  23.366276  -0.000025   0.000307 -12.279405 -12.288730  -0.083823   0.301370  -0.000006  -0.000004  -0.758048   3.191125  12.149508  24.126624  -0.000033   0.000276 -14.267814   6.181184   0.282323   1.334839  -0.000003   0.000001
 -2.952457   0.898607   4.842583  -9.686636  15.943569   0.359920   5.632936   0.495992  -1.668511   9.224582  -2.115568  -5.911804   0.816635  -7.521181   4.132969  -2.355378  20.765648 -13.637155  -8.829388  28.673440  -5.581550  -0.002557  38.487606   0.003830   9.620478   5.957851   6.737191   1.825667 -11.105369 -11.451501  14.021511  -9.369356 -39.580493  -0.000052 -13.635843  -0.000297   5.961211  -3.421898  -2.374851  -0.742225  -8.674507  -4.420501  23.203097  -0.000033   0.000302 -12.200383 -12.252339  -0.087146   0.322027  -0.000001  -0.000004  -0.686856   3.244330  12.128322  24.000183  -0.000038   0.000273 -14.230502   6.225239   0.300944   1.334878  -0.000002   0.000000
 -2.952119   0.898866   4.842769  -9.690704  15.880992   0.353146   5.631207   0.487446  -1.669647   9.240964  -2.129976  -5.897036   0.874943  -7.497706   4.131175  -2.455444  20.727667 -13.664177  -9.217183  28.614520  -5.422669  -0.002351  38.580064   0.003414   9.581408   5.972286   6.645782   1.848440 -11.096431 -11.388404  14.040565  -9.372468 -39.641046  -0.000044 -13.603624  -0.000267   5.960540  -3.421341  -2.434730  -0.631089  -8.638452  -4.418567  23.002908  -0.000052   0.000287 -12.106028 -12.230348  -0.076856   0.336800  -0.000000  -0.000003  -0.569230   3.298036  12.104229  23.835970  -0.000046   0.000276 -14.176605   6.261576   0.314289   1.333749  -0.000002   0.000000
